<svg width="10" height="6" viewBox="0 0 10 6" fill="none" xmlns="http://www.w3.org/2000/svg">
<path d="M4.98894 5.92838C4.86175 5.92854 4.73598 5.90157 4.62004 5.84926C4.5041 5.79695 4.40064 5.72052 4.31658 5.62506L0.501354 1.28835C0.380768 1.14465 0.321193 0.959463 0.335368 0.772402C0.349542 0.585341 0.436341 0.41125 0.577204 0.287353C0.718067 0.163456 0.901814 0.099589 1.08915 0.109407C1.27649 0.119226 1.45256 0.201951 1.5797 0.339893L4.91584 4.13218C4.92496 4.14259 4.9362 4.15093 4.94881 4.15664C4.96142 4.16236 4.9751 4.16531 4.98894 4.16531C5.00279 4.16531 5.01647 4.16236 5.02908 4.15664C5.04169 4.15093 5.05293 4.14259 5.06205 4.13218L8.39819 0.339893C8.45972 0.266562 8.5353 0.20627 8.62046 0.162563C8.70563 0.118856 8.79868 0.0926143 8.89413 0.0853814C8.98958 0.0781485 9.08552 0.0900699 9.1763 0.120445C9.26708 0.15082 9.35088 0.199036 9.42276 0.262258C9.49464 0.325481 9.55315 0.402434 9.59487 0.488596C9.63658 0.574757 9.66065 0.668388 9.66566 0.763985C9.67067 0.859581 9.65652 0.955215 9.62404 1.04527C9.59156 1.13531 9.54141 1.21796 9.47654 1.28835L5.66247 5.62351C5.57826 5.7192 5.47465 5.79588 5.35853 5.84845C5.2424 5.90101 5.11642 5.92826 4.98894 5.92838Z" fill="#6F7B8D"/>
</svg>
