<svg width="10" height="6" viewBox="0 0 10 6" fill="none" xmlns="http://www.w3.org/2000/svg">
<path d="M5.00029 0.0833747C5.12718 0.0832177 5.25265 0.110128 5.36832 0.16231C5.48399 0.214492 5.5872 0.290745 5.67106 0.38598L9.47729 4.71168C9.54201 4.7819 9.59205 4.86436 9.62445 4.9542C9.65685 5.04403 9.67097 5.13944 9.66597 5.23481C9.66097 5.33018 9.63696 5.42359 9.59534 5.50955C9.55373 5.59551 9.49535 5.67228 9.42364 5.73536C9.35193 5.79843 9.26833 5.84653 9.17776 5.87683C9.0872 5.90714 8.99149 5.91903 8.89626 5.91182C8.80103 5.9046 8.7082 5.87842 8.62324 5.83482C8.53827 5.79121 8.46288 5.73106 8.40149 5.6579L5.07322 1.87534C5.06412 1.86496 5.0529 1.85663 5.04032 1.85093C5.02775 1.84523 5.01409 1.84228 5.00029 1.84228C4.98647 1.84228 4.97282 1.84523 4.96025 1.85093C4.94767 1.85663 4.93645 1.86496 4.92735 1.87534L1.59908 5.65868C1.53769 5.73184 1.4623 5.79199 1.37733 5.83559C1.29237 5.8792 1.19954 5.90537 1.10431 5.91259C1.00908 5.91981 0.913372 5.90791 0.822805 5.87761C0.732238 5.84731 0.648643 5.7992 0.576932 5.73613C0.505221 5.67306 0.446843 5.59629 0.405227 5.51033C0.363611 5.42437 0.339599 5.33096 0.3346 5.23559C0.329602 5.14022 0.343719 5.04481 0.376121 4.95497C0.408523 4.86513 0.458557 4.78268 0.523282 4.71246L4.32835 0.387532C4.41236 0.292061 4.51572 0.215563 4.63157 0.163122C4.74743 0.11068 4.87312 0.0834955 5.00029 0.0833747Z" fill="#6F7B8D"/>
</svg>
