<svg width="64" height="22" viewBox="0 0 64 22" fill="none" xmlns="http://www.w3.org/2000/svg">
<path opacity="0.5" d="M8.70996 13.29H11.127C11.0625 14.1455 10.8252 14.9043 10.415 15.5664C10.0049 16.2227 9.43359 16.7383 8.70117 17.1133C7.96875 17.4883 7.08105 17.6758 6.03809 17.6758C5.23535 17.6758 4.51172 17.5352 3.86719 17.2539C3.22852 16.9668 2.68066 16.5596 2.22363 16.0322C1.77246 15.499 1.42676 14.8604 1.18652 14.1162C0.946289 13.3662 0.826172 12.5254 0.826172 11.5938V10.6182C0.826172 9.68652 0.949219 8.8457 1.19531 8.0957C1.44141 7.3457 1.79297 6.70703 2.25 6.17969C2.71289 5.64648 3.2666 5.23633 3.91113 4.94922C4.56152 4.66211 5.28809 4.51855 6.09082 4.51855C7.13379 4.51855 8.01562 4.71191 8.73633 5.09863C9.45703 5.47949 10.0166 6.00391 10.415 6.67188C10.8135 7.33984 11.0537 8.10742 11.1357 8.97461H8.71875C8.67188 8.43555 8.55469 7.97852 8.36719 7.60352C8.18555 7.22852 7.91016 6.94434 7.54102 6.75098C7.17773 6.55176 6.69434 6.45215 6.09082 6.45215C5.62207 6.45215 5.20898 6.54004 4.85156 6.71582C4.5 6.8916 4.20703 7.15527 3.97266 7.50684C3.73828 7.85254 3.5625 8.28613 3.44531 8.80762C3.32812 9.32324 3.26953 9.9209 3.26953 10.6006V11.5938C3.26953 12.2441 3.32227 12.8271 3.42773 13.3428C3.5332 13.8584 3.69727 14.2949 3.91992 14.6523C4.14258 15.0098 4.42969 15.2822 4.78125 15.4697C5.13281 15.6572 5.55176 15.751 6.03809 15.751C6.62988 15.751 7.11035 15.6572 7.47949 15.4697C7.85449 15.2822 8.13867 15.0068 8.33203 14.6436C8.53125 14.2803 8.65723 13.8291 8.70996 13.29ZM12.4102 12.8418V12.6572C12.4102 11.96 12.5098 11.3184 12.709 10.7324C12.9082 10.1406 13.1982 9.62793 13.5791 9.19434C13.96 8.76074 14.4258 8.42383 14.9766 8.18359C15.5273 7.9375 16.1543 7.81445 16.8574 7.81445C17.5723 7.81445 18.2051 7.9375 18.7559 8.18359C19.3125 8.42383 19.7812 8.76074 20.1621 9.19434C20.543 9.62793 20.833 10.1406 21.0322 10.7324C21.2314 11.3184 21.3311 11.96 21.3311 12.6572V12.8418C21.3311 13.5332 21.2314 14.1748 21.0322 14.7666C20.833 15.3525 20.543 15.8652 20.1621 16.3047C19.7812 16.7383 19.3154 17.0752 18.7646 17.3154C18.2139 17.5557 17.584 17.6758 16.875 17.6758C16.1719 17.6758 15.542 17.5557 14.9854 17.3154C14.4287 17.0752 13.96 16.7383 13.5791 16.3047C13.1982 15.8652 12.9082 15.3525 12.709 14.7666C12.5098 14.1748 12.4102 13.5332 12.4102 12.8418ZM14.7305 12.6572V12.8418C14.7305 13.2578 14.7715 13.6475 14.8535 14.0107C14.9355 14.374 15.0615 14.6934 15.2314 14.9688C15.4014 15.2441 15.6211 15.4609 15.8906 15.6191C16.166 15.7715 16.4941 15.8477 16.875 15.8477C17.25 15.8477 17.5723 15.7715 17.8418 15.6191C18.1113 15.4609 18.3311 15.2441 18.501 14.9688C18.6768 14.6934 18.8057 14.374 18.8877 14.0107C18.9697 13.6475 19.0107 13.2578 19.0107 12.8418V12.6572C19.0107 12.2471 18.9697 11.8633 18.8877 11.5059C18.8057 11.1426 18.6768 10.8232 18.501 10.5479C18.3311 10.2666 18.1084 10.0469 17.833 9.88867C17.5635 9.72461 17.2383 9.64258 16.8574 9.64258C16.4824 9.64258 16.1602 9.72461 15.8906 9.88867C15.6211 10.0469 15.4014 10.2666 15.2314 10.5479C15.0615 10.8232 14.9355 11.1426 14.8535 11.5059C14.7715 11.8633 14.7305 12.2471 14.7305 12.6572ZM25.3389 9.81836V21.1562H23.0098V7.99023H25.1631L25.3389 9.81836ZM31.4473 12.6484V12.833C31.4473 13.5244 31.3652 14.166 31.2012 14.7578C31.043 15.3438 30.8086 15.8564 30.498 16.2959C30.1875 16.7295 29.8008 17.0693 29.3379 17.3154C28.8809 17.5557 28.3535 17.6758 27.7559 17.6758C27.1699 17.6758 26.6602 17.5645 26.2266 17.3418C25.793 17.1133 25.4268 16.791 25.1279 16.375C24.8291 15.959 24.5889 15.4756 24.4072 14.9248C24.2314 14.3682 24.0996 13.7617 24.0117 13.1055V12.5166C24.0996 11.8193 24.2314 11.1865 24.4072 10.6182C24.5889 10.0439 24.8291 9.54883 25.1279 9.13281C25.4268 8.71094 25.79 8.38574 26.2178 8.15723C26.6514 7.92871 27.1582 7.81445 27.7383 7.81445C28.3418 7.81445 28.8721 7.92871 29.3291 8.15723C29.792 8.38574 30.1816 8.71387 30.498 9.1416C30.8145 9.56934 31.0518 10.0791 31.21 10.6709C31.3682 11.2627 31.4473 11.9219 31.4473 12.6484ZM29.1182 12.833V12.6484C29.1182 12.2266 29.0801 11.8369 29.0039 11.4795C28.9277 11.1162 28.8105 10.7998 28.6523 10.5303C28.4941 10.2549 28.2891 10.041 28.0371 9.88867C27.7852 9.73633 27.4805 9.66016 27.123 9.66016C26.7656 9.66016 26.458 9.71875 26.2002 9.83594C25.9424 9.95312 25.7314 10.1201 25.5674 10.3369C25.4033 10.5537 25.2744 10.8115 25.1807 11.1104C25.0928 11.4033 25.0342 11.7285 25.0049 12.0859V13.5449C25.0576 13.9785 25.1602 14.3682 25.3125 14.7139C25.4648 15.0596 25.6875 15.335 25.9805 15.54C26.2793 15.7451 26.666 15.8477 27.1406 15.8477C27.498 15.8477 27.8027 15.7686 28.0547 15.6104C28.3066 15.4521 28.5117 15.2354 28.6699 14.96C28.8281 14.6787 28.9424 14.3564 29.0127 13.9932C29.083 13.6299 29.1182 13.2432 29.1182 12.833ZM35.8242 16.4453L38.373 7.99023H40.8604L37.0459 18.9414C36.958 19.1758 36.8438 19.4307 36.7031 19.7061C36.5684 19.9814 36.3867 20.2422 36.1582 20.4883C35.9297 20.7402 35.6426 20.9453 35.2969 21.1035C34.957 21.2617 34.5439 21.3408 34.0576 21.3408C33.8467 21.3408 33.6592 21.3262 33.4951 21.2969C33.3311 21.2676 33.1582 21.2295 32.9766 21.1826V19.4424C33.0352 19.4482 33.1025 19.4512 33.1787 19.4512C33.2607 19.457 33.3311 19.46 33.3896 19.46C33.7295 19.46 34.0107 19.4189 34.2334 19.3369C34.4561 19.2607 34.6348 19.1348 34.7695 18.959C34.9102 18.7891 35.0273 18.5664 35.1211 18.291L35.8242 16.4453ZM34.5674 7.99023L36.7207 14.9951L37.0986 17.4473L35.499 17.7373L32.0625 7.99023H34.5674ZM45.4219 18.76H63.4219V0.76H45.4219V18.76Z" fill="white"/>
</svg>
